#!OML:ASF H:\GeneralSubjects\Female5\Project 1\Capture day 1\Session 1\Female5.ASF
:FULLY-SPECIFIED
:DEGREES
564
root -4.28296 15.9121 -8.84981 -705.406 -46.1341 -11.0438
lowerback 13.9993 -1.25642 -2.56884
upperback -11.4643 -1.3741 6.7702
thorax -21.0318 0.470021 9.86686
lowerneck -11.3873 2.08329 -1.92151
upperneck 43.3362 6.13562 -8.39424
head 18.6383 0.505933 -2.73384
rclavicle 4.69132e-014 4.21423e-014
rhumerus -58.3628 26.1043 -80.615
rradius 29.1195
rwrist -13.6677
rhand -25.4595 -20.7697
rfingers 7.12502
rthumb 1.06775 -50.7467
lclavicle 4.69132e-014 4.21423e-014
lhumerus -60.7802 16.634 63.5958
lradius 26.3958
lwrist -7.93423
lhand -24.7308 32.7811
lfingers 7.12502
lthumb 1.7716 62.7535
rfemur -14.6673 14.0174 29.9835
rtibia 10.6867
rfoot -9.06854 -6.74357
rtoes -11.6173
lfemur 1.43279 -8.87438 -22.8494
ltibia 45.3879
lfoot 3.7305 19.3861
ltoes -22.045
565
root -4.5303 15.9475 -8.73828 -705.456 -44.9822 -11.4035
lowerback 14.2694 -1.21331 -2.5314
upperback -11.2614 -1.24292 7.09507
thorax -20.9788 0.55409 10.191
lowerneck -11.2669 2.19053 -2.54162
upperneck 43.2855 6.30021 -7.87107
head 18.5259 0.559187 -2.32444
rclavicle -7.71285e-014 -8.50798e-014
rhumerus -57.7914 27.5742 -81.0228
rradius 29.7923
rwrist -13.5103
rhand -24.6261 -20.7295
rfingers 7.12502
rthumb 1.87264 -50.701
lclavicle -7.71285e-014 -8.50798e-014
lhumerus -61.2316 17.3871 62.5683
lradius 25.7011
lwrist -9.09891
lhand -24.1842 33.1404
lfingers 7.12502
lthumb 2.29947 63.1077
rfemur -12.7003 13.0529 31.1115
rtibia 9.85498
rfoot -9.41921 -6.5515
rtoes -13.3339
lfemur -1.91374 -7.76155 -21.4193
ltibia 49.9585
lfoot 7.80515 22.1551
ltoes -31.6137
566
root -4.76709 15.9789 -8.6281 -705.243 -43.7741 -11.774
lowerback 14.3554 -1.21333 -2.46546
upperback -11.1293 -1.16926 7.42052
thorax -20.8864 0.605841 10.5133
lowerneck -11.4936 1.8154 -2.87358
upperneck 43.6389 5.9435 -8.08451
head 18.8047 0.315556 -2.45844
rclavicle 4.55217e-014 5.56597e-015
rhumerus -57.054 29.2894 -81.5199
rradius 30.3938
rwrist -13.6261
rhand -24.2679 -20.962
rfingers 7.12502
rthumb 2.21865 -50.9302
lclavicle 4.55217e-014 5.56597e-015
lhumerus -61.5557 17.6303 62.1921
lradius 25.3722
lwrist -10.0832
lhand -24.0771 33.593
lfingers 7.12502
lthumb 2.40288 63.5592
rfemur -11.1879 12.0781 32.1113
rtibia 9.2086
rfoot -9.67605 -6.20179
rtoes -15.6746
lfemur -5.96001 -6.48336 -20.1317
ltibia 54.6997
lfoot 3.91781 22.6957
ltoes -37.1399
567
root -4.99355 15.9985 -8.51865 -704.677 -42.4515 -12.2643
lowerback 14.2906 -1.2355 -2.17377
upperback -11.1679 -1.07271 7.75548
thorax -20.929 0.645603 10.718
lowerneck -11.3679 1.65245 -3.18193
upperneck 43.8804 5.82385 -8.15286
head 18.9193 0.205276 -2.47373
rclavicle -9.20373e-014 7.95139e-016
rhumerus -56.5763 31.1665 -82.2113
rradius 30.8901
rwrist -14.2598
rhand -24.9605 -21.1935
rfingers 7.12502
rthumb 1.5497 -51.1676
lclavicle -9.20373e-014 7.95139e-016
lhumerus -61.9861 15.7157 64.3374
lradius 26.5946
lwrist -8.28881
lhand -20.519 30.0036
lfingers 7.12502
lthumb 5.83876 59.9032
rfemur -10.089 11.2412 33.1371
rtibia 8.62553
rfoot -10.2393 -6.12704
rtoes -17.1367
lfemur -10.7674 -5.19135 -18.9552
ltibia 59.5208
lfoot -6.29923 20.1838
ltoes -33.7271
568
root -5.21283 16.0087 -8.41713 -703.823 -41.2271 -12.8671
lowerback 14.142 -1.21499 -1.8617
upperback -11.3293 -0.91004 8.10789
thorax -21.0969 0.724324 10.9249
lowerneck -11.0892 1.46368 -3.59717
upperneck 44.0523 5.59563 -8.0378
head 18.9225 0.0644117 -2.39159
rclavicle 7.7526e-014 9.06458e-014
rhumerus -56.0113 32.6791 -82.5654
rradius 31.1428
rwrist -14.2221
rhand -25.5835 -21.2506
rfingers 7.12502
rthumb 0.948048 -51.2283
lclavicle 7.7526e-014 9.06458e-014
lhumerus -63.1134 10.8393 69.8793
lradius 30.4499
lwrist -2.11849
lhand -24.3699 35.6027
lfingers 7.12502
lthumb 2.12007 65.5719
rfemur -9.6006 10.9919 34.1927
rtibia 8.37599
rfoot -11.2143 -6.72721
rtoes -18.7576
lfemur -16.1527 -3.6863 -17.8728
ltibia 63.7343
lfoot -12.5811 15.6518
ltoes -31.7378
569
root -5.41275 16.0211 -8.3103 -703.134 -40.4179 -13.035
lowerback 13.9866 -1.10079 -1.7963
upperback -11.4896 -0.697912 8.31792
thorax -21.2662 0.848021 11.0923
lowerneck -10.9151 1.30131 -3.96289
upperneck 44.152 5.42944 -7.98839
head 18.9203 -0.0506696 -2.33445
rclavicle -4.77083e-014 -6.36111e-014
rhumerus -55.3754 34.5054 -83.043
rradius 31.3594
rwrist -14.3112
rhand -25.7787 -21.3458
rfingers 7.12502
rthumb 0.759474 -51.3242
lclavicle -4.77083e-014 -6.36111e-014
lhumerus -63.4507 12.2599 68.4336
lradius 30.0169
lwrist -4.57597
lhand -24.3698 34.3686
lfingers 7.12502
lthumb 2.12019 64.3379
rfemur -9.43122 10.5157 34.783
rtibia 8.32081
rfoot -11.798 -7.00381
rtoes -20.6045
lfemur -21.4725 -2.07604 -17.6545
ltibia 66.6273
lfoot -14.8705 12.1187
ltoes -31.6517
